<?xml version="1.0" encoding="UTF-8"?>
<svg xmlns="http://www.w3.org/2000/svg" version="1.1" viewBox="0 0 548.7 272.34">
  <!-- Generator: Adobe Illustrator 29.8.4, SVG Export Plug-In . SVG Version: 2.1.1 Build 6)  -->
  <defs>
    <style>
      .st0 {
        stroke: #828487;
        stroke-width: 5px;
      }

      .st0, .st1, .st2, .st3, .st4 {
        fill: #fff;
      }

      .st0, .st1, .st2, .st3, .st4, .st5, .st6, .st7, .st8, .st9 {
        stroke-miterlimit: 10;
      }

      .st1, .st3, .st4, .st7, .st8 {
        stroke: #231f20;
      }

      .st1, .st7, .st8 {
        stroke-width: .75px;
      }

      .st10, .st11 {
        fill: #231f20;
      }

      .st2, .st5 {
        stroke-width: 4px;
      }

      .st2, .st5, .st6 {
        stroke: #1a4d5b;
      }

      .st3, .st12 {
        display: none;
      }

      .st11 {
        font-family: SansSerifCollection, 'Sans Serif Collection';
        font-size: 8px;
      }

      .st5, .st7, .st8 {
        fill: none;
      }

      .st6 {
        fill: #1a4d5b;
      }

      .st7 {
        stroke-dasharray: 2 2;
      }

      .st9 {
        fill: #197c92;
        stroke: #002428;
        stroke-width: .5px;
      }
    </style>
  </defs>
  <g id="Layer_1">
    <path class="st4" d="M-236.85,426.98"/>
  </g>
  <g id="Old" class="st12">
    <path class="st4" d="M195.71,367.1c-1.88-4.97-3.94-9.7-6.15-14.23-2.21-4.53-4.57-8.84-7.05-12.97-2.48-4.13-5.07-8.06-7.76-11.83-2.69-3.77-5.48-7.37-8.35-10.81-2.87-3.45-5.82-6.74-8.84-9.9-3.02-3.16-6.11-6.18-9.27-9.09-3.16-2.9-6.39-5.68-9.68-8.35-3.29-2.67-6.65-5.23-10.08-7.69s-6.92-4.82-10.5-7.09c-3.57-2.27-7.22-4.45-10.95-6.54-3.73-2.09-7.54-4.1-11.45-6.01-3.91-1.92-7.91-3.75-12.02-5.5-4.11-1.75-8.32-3.41-12.65-4.99s-8.79-3.06-13.38-4.44c-4.59-1.39-9.31-2.67-14.19-3.85-4.87-1.18-9.9-2.24-15.09-3.18s-10.55-1.75-16.09-2.41-11.26-1.17-17.18-1.5c-5.92-.33-12.04-.48-18.36-.41-.07-4.64-.04-8.57,0-12.26.04-3.68.09-7.11.12-10.8.04-3.68.07-7.62,0-12.26,6.48-.07,12.76.07,18.86.38,6.09.31,12,.8,17.74,1.42,5.74.63,11.3,1.4,16.72,2.29s10.67,1.91,15.8,3.02c5.12,1.12,10.11,2.33,14.97,3.64s9.61,2.7,14.24,4.17c4.63,1.47,9.16,3.02,13.59,4.64,4.43,1.62,8.76,3.32,12.99,5.1,4.23,1.78,8.36,3.63,12.41,5.56,4.05,1.93,8.01,3.93,11.9,6.01,3.89,2.08,7.7,4.23,11.44,6.47,3.74,2.23,7.41,4.55,11.02,6.94,3.61,2.4,7.15,4.88,10.63,7.45,3.48,2.57,6.9,5.23,10.26,7.99,3.36,2.76,6.67,5.61,9.91,8.58,3.24,2.96,6.43,6.03,9.55,9.22,3.12,3.19,6.18,6.49,9.17,9.93,2.99,3.44,5.91,7,8.76,10.71s5.61,7.56,8.28,11.57c2.67,4.01,5.25,8.17,7.72,12.51,2.47,4.34,4.83,8.85,7.05,13.55,2.22,4.7,4.31,9.59,6.24,14.68-5.38,1.37-9.86,2.52-14.05,3.59-4.18,1.07-8.07,2.06-12.26,3.13-4.18,1.07-8.67,2.21-14.05,3.59Z"/>
  </g>
  <g id="Undeformed">
    <polygon class="st9" points="408.77 56.6 408.77 31.15 389.62 31.15 389.62 56.6 378.81 56.6 378.81 31.15 359.66 31.15 359.66 56.6 348.85 56.6 348.85 31.15 329.71 31.15 329.71 56.6 318.9 56.6 318.9 31.15 299.75 31.15 299.75 56.6 288.94 56.6 288.94 31.15 269.8 31.15 269.8 56.6 258.99 56.6 258.99 31.15 239.84 31.15 239.84 56.6 229.03 56.6 229.03 31.15 209.88 31.15 209.88 56.6 199.07 56.6 199.07 31.15 179.93 31.15 179.93 56.6 170.05 56.6 169.12 56.6 169.12 31.15 149.97 31.15 149.97 56.6 139.16 56.6 139.16 31.15 120.02 31.15 120.02 56.6 109.2 56.6 109.2 31.15 90.06 31.15 90.06 56.6 89.63 56.6 89.63 60.19 89.63 63.78 89.63 67.37 89.63 70.96 170.05 70.96 250.47 70.96 330.9 70.96 411.32 70.96 411.32 67.37 411.32 63.78 411.32 60.19 411.32 56.6 408.77 56.6"/>
    <g>
      <g>
        <line class="st2" x1="99.63" y1="62.7" x2="99.63" y2="36.7"/>
        <line class="st2" x1="129.63" y1="62.7" x2="129.63" y2="36.7"/>
        <line class="st2" x1="159.63" y1="62.7" x2="159.63" y2="36.7"/>
        <line class="st2" x1="189.63" y1="62.7" x2="189.63" y2="36.7"/>
        <line class="st2" x1="219.63" y1="62.7" x2="219.63" y2="36.7"/>
        <line class="st2" x1="249.63" y1="62.7" x2="249.63" y2="36.7"/>
        <line class="st2" x1="279.63" y1="62.7" x2="279.63" y2="36.7"/>
        <line class="st2" x1="309.63" y1="62.7" x2="309.63" y2="36.7"/>
        <line class="st2" x1="339.63" y1="62.7" x2="339.63" y2="36.7"/>
        <line class="st2" x1="369.63" y1="62.7" x2="369.63" y2="36.7"/>
        <line class="st2" x1="399.63" y1="62.7" x2="399.63" y2="36.7"/>
      </g>
      <path class="st2" d="M91.81,64.55l315.79-.77"/>
    </g>
    <path class="st0" d="M211.4,86.24"/>
  </g>
  <g id="Bend1">
    <path id="pneunet" class="st9" d="M366.95,188.02l-4.66-8.61-6.88,2.18c-3.61,1.15-6.97,2.97-9.91,5.36l-5.29,4.32c-1.99-3.62-4.2-7.45-6.65-11.44l1.21,1.81,6.75-2.89c3.41-1.46,6.51-3.54,9.16-6.13l5.25-5.13-5.44-8.13-5.44-8.13-6.65,2.82c-3.49,1.48-6.66,3.6-9.36,6.27l-5.08,5.01c-2-2.81-4.11-5.66-6.35-8.54l5.99-3.3c3.24-1.79,6.13-4.16,8.51-7.01l4.71-5.63-6.22-7.56-6.22-7.56-6.34,3.46c-3.32,1.82-6.28,4.25-8.7,7.16l-4.48,5.39c-2.24-2.43-4.57-4.86-6.99-7.27l5.24-3.74c3.01-2.15,5.6-4.85,7.64-7.95l4.03-6.14-7.06-6.78-7.06-6.78-5.89,4.18c-3.09,2.19-5.74,4.95-7.81,8.12l-3.74,5.75c-2.22-1.85-4.47-3.68-6.82-5.48l4.85-4.65c2.68-2.56,4.85-5.6,6.42-8.96l3.11-6.65-7.95-5.7-7.95-5.7-5.24,4.98c-2.75,2.61-4.97,5.72-6.56,9.15l-2.87,6.21c-3.08-1.95-6.28-3.85-9.56-5.71l4.35-5.71c2.24-2.95,3.92-6.29,4.95-9.85l2.04-7.05-8.74-4.4-8.74-4.4-4.4,5.73c-2.31,3-4.02,6.42-5.06,10.06l-1.84,6.46c-3.14-1.52-6.25-2.98-9.35-4.37l3.83-5.68c2.07-3.07,3.55-6.5,4.37-10.12l1.62-7.16-8.98-3.88-8.98-3.88-4.06,5.98c-2.13,3.13-3.64,6.64-4.47,10.34l-1.53,6.88c-3.37-1.28-6.71-2.48-10.01-3.61l3.14-6.2c1.68-3.31,2.72-6.89,3.09-10.58l.73-7.3-9.39-2.75-9.39-2.75-3.29,6.43c-1.73,3.37-2.8,7.04-3.16,10.81l-.62,6.47c-3.22-.89-6.38-1.72-9.48-2.48l2.36-6.17c1.32-3.46,1.99-7.14,1.98-10.84l-.03-7.34-9.63-1.76-9.63-1.76-2.61,6.74c-1.37,3.53-2.05,7.29-2.02,11.08l.05,5.88c-3.67-.67-7.21-1.25-10.63-1.75l1.9-6.38c1.06-3.55,1.45-7.27,1.15-10.96l-.59-7.32-9.73-1.02-9.73-1.02-2.09,6.91c-1.1,3.63-1.5,7.43-1.18,11.2l.53,6.32c-2.76-.23-5.38-.41-7.82-.54l1.24-6.65c.68-3.64.68-7.38,0-11.02l-1.35-7.22h-19.57l-1.36,7.09c-.71,3.72-.71,7.54,0,11.26l1.23,6.46-.05,5.96-.06,7.44c24.21,1.24,65.62-3.12,134.29,29.12,69.26,32.52,99.26,92.16,113.37,117.93l13.8-4.4c-.78-1.66-1.67-3.54-2.65-5.56l.78,1.44,6.99-2.25c3.53-1.14,6.81-2.91,9.69-5.25l5.7-4.62-4.66-8.61Z"/>
    <path class="st0" d="M334.95,54.02"/>
    <path class="st5" d="M341.93,212.39c-7.98-18.77-23.9-49.4-54.51-77.95-33.29-31.05-67.07-43.9-87.73-51.53-42.29-15.61-80.65-18.71-107.89-18.36"/>
    <g>
      <path class="st6" d="M102.25,62.89h-5.33l-2.45-10.62c-.38-1.63-.38-3.32,0-4.95l2.45-10.62h5.33l2.45,10.62c.38,1.63.38,3.32,0,4.95l-2.45,10.62Z"/>
      <path class="st6" d="M129.4,64.44l-2.66-.19-2.66-.19-1.68-10.77c-.26-1.65-.13-3.34.36-4.94l3.22-10.42,2.66.19,2.66.19,1.68,10.77c.26,1.65.13,3.34-.36,4.94l-3.22,10.42Z"/>
      <path class="st6" d="M159.39,69.05l-2.63-.45-2.63-.45-.62-10.88c-.09-1.67.19-3.34.84-4.88l4.22-10.05,2.63.45,2.63.45.62,10.88c.09,1.67-.19,3.34-.84,4.88l-4.22,10.05Z"/>
      <path class="st6" d="M187.3,76.24l-2.58-.68-2.58-.68.35-10.9c.05-1.67.49-3.31,1.27-4.78l5.09-9.64,2.58.68,2.58.68-.35,10.9c-.05,1.67-.49,3.31-1.27,4.78l-5.09,9.64Z"/>
      <path class="st6" d="M215.19,86.41l-2.44-1.06-2.44-1.06,1.99-10.72c.31-1.64.98-3.19,1.98-4.54l6.49-8.76,2.44,1.06,2.44,1.06-1.99,10.72c-.31,1.64-.98,3.19-1.98,4.54l-6.49,8.76Z"/>
      <path class="st6" d="M242.22,99.15l-2.38-1.19-2.38-1.19,2.54-10.6c.39-1.63,1.14-3.14,2.21-4.43l6.93-8.42,2.38,1.19,2.38,1.19-2.54,10.6c-.39,1.63-1.14,3.14-2.21,4.43l-6.93,8.42Z"/>
      <path class="st6" d="M267.87,115.43l-2.2-1.5-2.2-1.5,3.97-10.15c.61-1.56,1.56-2.95,2.79-4.09l8.02-7.38,2.2,1.5,2.2,1.5-3.97,10.15c-.61,1.56-1.56,2.95-2.79,4.09l-8.02,7.38Z"/>
      <path class="st6" d="M289.64,133.17l-1.95-1.82-1.95-1.82,5.46-9.43c.84-1.45,1.99-2.68,3.38-3.62l9.04-6.08,1.95,1.82,1.95,1.82-5.46,9.43c-.84,1.45-1.99,2.68-3.38,3.62l-9.04,6.08Z"/>
      <path class="st6" d="M309.02,154.15l-1.72-2.03-1.72-2.03,6.53-8.73c1-1.34,2.29-2.43,3.78-3.2l9.69-4.99,1.72,2.03,1.72,2.03-6.53,8.73c-1,1.34-2.29,2.43-3.78,3.2l-9.69,4.99Z"/>
      <path class="st6" d="M326.85,178.56l-1.49-2.21-1.49-2.21,7.44-7.97c1.14-1.22,2.55-2.17,4.11-2.76l10.18-3.9,1.49,2.21,1.49,2.21-7.44,7.97c-1.14,1.22-2.55,2.17-4.11,2.76l-10.18,3.9Z"/>
      <path class="st6" d="M338.73,205.84l-1.25-2.35-1.25-2.35,9.45-7.81c1.45-1.2,3.14-2.1,4.94-2.63l11.76-3.49,1.25,2.35,1.25,2.35-9.45,7.81c-1.45,1.2-3.14,2.1-4.94,2.63l-11.76,3.49Z"/>
    </g>
  </g>
  <g id="Bend2">
    <path class="st3" d="M64.99,197.04"/>
    <path class="st9" d="M200.68,139.36c-4.38-2.86-9.85-3.48-14.75-1.67l-6.35,2.35c.02-.89.05-1.78.04-2.68-.02-1.78-.12-3.54-.25-5.29l5.14,1.54c4.51,1.35,9.38.71,13.39-1.76l7.39-4.56-1.25-9.49-1.25-9.49-7.67-2.68c-4.94-1.72-10.4-1.01-14.72,1.94l-5.47,3.72c-.73-2.03-1.53-4.02-2.42-5.97l6.34-.54c4.69-.4,8.99-2.79,11.8-6.56l5.2-6.95-4.65-8.37-4.65-8.37-8.11.33c-5.22.21-10.04,2.89-12.98,7.21l-3.86,5.68c-1.38-1.69-2.83-3.33-4.35-4.9l6.68-3.61c4.14-2.24,7.13-6.14,8.22-10.72l2-8.45-7.6-5.82-7.6-5.82-7.31,3.53c-4.71,2.27-8.06,6.65-9.03,11.78l-1.2,6.36c-1.76-1.08-3.57-2.1-5.42-3.05l4.92-5.48c3.14-3.5,4.64-8.18,4.12-12.86l-.97-8.63-9.12-2.92-9.12-2.92-5.69,5.79c-3.66,3.73-5.34,8.98-4.53,14.14l.94,5.95c-2.13-.46-4.28-.84-6.46-1.12l2.88-6.41c1.93-4.3,1.93-9.21,0-13.5l-3.55-7.92h-19.15l-3.65,7.25c-2.35,4.67-2.35,10.18,0,14.85l3.02,5.99.02,11.85c3.02-.41,6.1-.62,9.23-.62,37.46,0,67.82,30.36,67.82,67.82s-30.36,67.82-67.82,67.82c-11.37,0-22.09-2.8-31.5-7.74l-6.52,9.87c2.09,1.16,4.24,2.23,6.44,3.2l-4.81,5.26c-3.17,3.48-4.71,8.14-4.23,12.82l.89,8.64,9.09,3,9.09,3,5.74-5.74c3.7-3.7,5.42-8.93,4.65-14.1l-1.06-7.1c1.99.33,4.01.58,6.05.76l-2.4,6.49c-1.63,4.42-1.3,9.32.92,13.47l4.08,7.66,9.55-.65,9.55-.65,3.15-7.48c2.03-4.82,1.66-10.31-1.01-14.81l-2.94-4.97c2.33-.41,4.63-.91,6.88-1.51l-.23,5.7c-.19,4.7,1.63,9.27,5.01,12.54l6.24,6.04,8.89-3.55,8.89-3.55.7-8.09c.45-5.21-1.59-10.32-5.51-13.79l-4.16-3.67c1.98-1.17,3.9-2.42,5.77-3.75l1.49,5.86c1.16,4.56,4.21,8.41,8.39,10.58l7.71,4,7.5-5.95,7.5-5.95-1.65-7.95c-1.06-5.12-4.48-9.44-9.23-11.63l-6.58-3.05c1.38-1.67,2.69-3.39,3.94-5.17l4.5,5.86c2.86,3.74,7.19,6.07,11.88,6.42l8.66.64,4.55-8.42,4.55-8.42-4.64-6.66c-2.99-4.29-7.84-6.91-13.06-7.05l-7.03-.2c.79-2.11,1.49-4.26,2.1-6.46l6.97,4.13c4.05,2.4,8.93,2.95,13.42,1.52l8.27-2.64,1.08-9.51,1.08-9.51-6.79-4.45Z"/>
    <path class="st5" d="M96.52,64.64c44.35-1.58,79.34,37.58,76.9,75.89-.22,3.5,0,22.18-16.93,44.38-18.42,24.16-53.58,34.11-85.54,22.76"/>
    <g>
      <path class="st6" d="M102.32,62.79h-5.47l-6.52-9.65c-1.82-2.69-1.82-6.37,0-9.06l6.52-9.65h5.47l6.52,9.65c1.82,2.69,1.82,6.37,0,9.06l-6.52,9.65Z"/>
      <path class="st6" d="M128.02,68.37l-2.61-.81-2.61-.81-3.35-11.15c-.93-3.11.16-6.62,2.7-8.65l9.1-7.27,2.61.81,2.61.81,3.35,11.15c.93,3.11-.16,6.62-2.7,8.65l-9.1,7.27Z"/>
      <path class="st6" d="M149.11,81.32l-2.18-1.65-2.18-1.65.64-11.63c.18-3.25,2.4-6.17,5.48-7.22l11.03-3.75,2.18,1.65,2.18,1.65-.64,11.63c-.18,3.25-2.4,6.17-5.48,7.22l-11.03,3.75Z"/>
      <path class="st6" d="M164.17,100.73l-1.29-2.42-1.29-2.42,5.46-10.29c1.52-2.87,4.77-4.6,8-4.26l11.58,1.22,1.29,2.42,1.29,2.42-5.46,10.29c-1.52,2.87-4.77,4.6-8,4.26l-11.58-1.22Z"/>
      <path class="st6" d="M173.32,126.03l-.48-2.69-.48-2.69,8.35-8.12c2.33-2.27,5.95-2.91,8.92-1.6l10.65,4.71.48,2.69.48,2.69-8.35,8.12c-2.33,2.27-5.95,2.91-8.92,1.6l-10.65-4.71Z"/>
      <path class="st6" d="M174.77,151.92l.42-2.7.42-2.7,10.54-4.96c2.94-1.38,6.57-.82,8.95,1.39l8.53,7.92-.42,2.7-.42,2.7-10.54,4.96c-2.94,1.38-6.57.82-8.95-1.39l-8.53-7.92Z"/>
      <path class="st6" d="M165.1,175.12l1.27-2.42,1.27-2.42,11.57-1.28c3.23-.36,6.48,1.35,8.02,4.22l5.51,10.26-1.27,2.42-1.27,2.42-11.57,1.28c-3.23.36-6.48-1.35-8.02-4.22l-5.51-10.26Z"/>
      <path class="st6" d="M149.48,195.06l2.12-1.73,2.12-1.73,11.15,3.35c3.11.93,5.44,3.78,5.74,7.01l1.06,11.6-2.12,1.73-2.12,1.73-11.15-3.35c-3.11-.93-5.44-3.78-5.74-7.01l-1.06-11.6Z"/>
      <path class="st6" d="M126.47,208.05l2.54-1.02,2.54-1.02,9.64,6.53c2.69,1.82,4.06,5.23,3.38,8.41l-2.45,11.38-2.54,1.02-2.54,1.02-9.64-6.53c-2.69-1.82-4.06-5.23-3.38-8.41l2.45-11.38Z"/>
      <path class="st6" d="M99.38,214.12l2.72-.27,2.72-.27,7.43,8.97c2.07,2.5,2.43,6.16.88,9.02l-5.54,10.24-2.72.27-2.72.27-7.43-8.97c-2.07-2.5-2.43-6.16-.88-9.02l5.54-10.24Z"/>
      <path class="st6" d="M75.13,210.17l2.61.83,2.61.83,3.29,11.17c.92,3.12-.19,6.62-2.74,8.64l-9.13,7.23-2.61-.83-2.61-.83-3.29-11.17c-.92-3.12.19-6.62,2.74-8.64l9.13-7.23Z"/>
    </g>
  </g>
  <g id="Text_and_Arrows">
    <text class="st11" transform="translate(29.94 60.71)"><tspan x="0" y="0">Air inlet</tspan></text>
    <path class="st4" d="M409.55,90.81"/>
    <line class="st1" x1="443.64" y1="46.24" x2="399.63" y2="46.24"/>
    <g>
      <path class="st8" d="M29.94,64.18h51.16"/>
      <polygon class="st10" points="86.39 64.18 78.93 67.22 80.7 64.18 78.93 61.13 86.39 64.18"/>
    </g>
    <text class="st11" transform="translate(447.29 48.61)"><tspan x="0" y="0">Air channel</tspan></text>
    <text class="st11" transform="translate(386.68 131.41)"><tspan x="0" y="0">P &gt; P0</tspan></text>
    <text class="st11" transform="translate(417.39 69.05)"><tspan x="0" y="0" xml:space="preserve">Pneunet at rest ( P0 = 0  psi)</tspan></text>
    <g>
      <path class="st7" d="M313.15,199.41c-15.44,8.98-33.39,14.12-52.54,14.12-20.15,0-38.97-5.69-54.94-15.56"/>
      <polygon class="st10" points="201.24 195.08 209.17 196.52 206.04 198.14 205.9 201.66 201.24 195.08"/>
    </g>
    <g>
      <path class="st7" d="M385.67,81.38c.66,4.78,1.01,9.66,1.01,14.63,0,22.3-6.93,42.98-18.75,60"/>
      <polygon class="st10" points="364.8 160.28 366.63 152.43 368.09 155.64 371.6 155.96 364.8 160.28"/>
    </g>
    <text class="st11" transform="translate(237.45 227.97)"><tspan x="0" y="0">P &gt;&gt; P0</tspan></text>
  </g>
</svg>